<?xml version="1.0" encoding="UTF-8"?>
<svg xmlns="http://www.w3.org/2000/svg" width="24" height="24" viewBox="0 0 24 24" role="img" aria-labelledby="title">
    <title>카카오 심볼</title>
    <circle cx="12" cy="12" r="12" fill="#FEE500" />
    <path fill="#381E1F" d="M12 5C7.305 5 3.5 8.027 3.5 11.76c0 2.246 1.383 4.248 3.56 5.5l-.533 3.72a.4.4 0 00.6.41l3.94-2.12c.654.1 1.327.15 1.996.15 4.695 0 8.5-3.027 8.5-6.76C21.063 8.027 16.695 5 12 5zm3.12 10.247l-.84-2.238c-.087-.231-.134-.377-.134-.44 0-.064.01-.105.031-.124.02-.02.074-.034.16-.044l.75-.09v-.59h-3.226v.59l.78.09c.083.01.136.028.16.054.023.025.034.066.034.12 0 .054-.035.176-.105.367l-.883 2.304-.988-2.53c-.173-.441-.26-.707-.26-.794 0-.074.02-.126.059-.153.04-.028.119-.048.238-.061l.583-.063v-.59H8.01v.59l.527.063c.128.015.214.044.257.086.043.042.094.14.153.294l1.68 4.295h.83l1.12-2.9 1.12 2.9h.83l1.68-4.295c.066-.172.123-.28.17-.324.047-.045.13-.075.248-.09l.528-.063v-.59h-2.707v.59l.523.063c.126.016.211.045.254.088.043.044.099.154.168.329l-1.074 2.74z"/>
</svg>
